<svg width="236" height="109" viewBox="0 0 236 109" fill="none" xmlns="http://www.w3.org/2000/svg">
<path d="M50.192 17.16V51H40.784V32.328L34.4 51H26.528L20.096 32.184V51H10.688V17.16H22.064L30.56 39.144L38.864 17.16H50.192ZM67.9314 51.336C64.7634 51.336 61.8514 50.6 59.1954 49.128C56.5394 47.624 54.4274 45.56 52.8594 42.936C51.3234 40.28 50.5554 37.288 50.5554 33.96C50.5554 30.632 51.3234 27.656 52.8594 25.032C54.4274 22.376 56.5394 20.312 59.1954 18.84C61.8514 17.368 64.7634 16.632 67.9314 16.632C71.1314 16.632 74.0434 17.368 76.6674 18.84C79.3234 20.312 81.4194 22.376 82.9554 25.032C84.4914 27.656 85.2594 30.632 85.2594 33.96C85.2594 37.288 84.4914 40.28 82.9554 42.936C81.4194 45.56 79.3234 47.624 76.6674 49.128C74.0114 50.6 71.0994 51.336 67.9314 51.336ZM67.9314 42.6C70.3314 42.6 72.2194 41.816 73.5954 40.248C75.0034 38.68 75.7074 36.584 75.7074 33.96C75.7074 31.272 75.0034 29.16 73.5954 27.624C72.2194 26.056 70.3314 25.272 67.9314 25.272C65.4994 25.272 63.5954 26.056 62.2194 27.624C60.8434 29.16 60.1554 31.272 60.1554 33.96C60.1554 36.616 60.8434 38.728 62.2194 40.296C63.5954 41.832 65.4994 42.6 67.9314 42.6ZM111.137 17.16V24.648H102.113V51H92.7046V24.648H83.7766V17.16H111.137ZM127.001 51.336C123.833 51.336 120.921 50.6 118.265 49.128C115.609 47.624 113.497 45.56 111.929 42.936C110.393 40.28 109.625 37.288 109.625 33.96C109.625 30.632 110.393 27.656 111.929 25.032C113.497 22.376 115.609 20.312 118.265 18.84C120.921 17.368 123.833 16.632 127.001 16.632C130.201 16.632 133.113 17.368 135.737 18.84C138.393 20.312 140.489 22.376 142.025 25.032C143.561 27.656 144.329 30.632 144.329 33.96C144.329 37.288 143.561 40.28 142.025 42.936C140.489 45.56 138.393 47.624 135.737 49.128C133.081 50.6 130.169 51.336 127.001 51.336ZM127.001 42.6C129.401 42.6 131.289 41.816 132.665 40.248C134.073 38.68 134.777 36.584 134.777 33.96C134.777 31.272 134.073 29.16 132.665 27.624C131.289 26.056 129.401 25.272 127.001 25.272C124.569 25.272 122.665 26.056 121.289 27.624C119.913 29.16 119.225 31.272 119.225 33.96C119.225 36.616 119.913 38.728 121.289 40.296C122.665 41.832 124.569 42.6 127.001 42.6ZM161.855 51L155.135 38.52H154.127V51H144.719V17.16H159.551C162.271 17.16 164.575 17.64 166.463 18.6C168.351 19.528 169.775 20.824 170.735 22.488C171.695 24.12 172.175 25.96 172.175 28.008C172.175 30.312 171.535 32.344 170.255 34.104C169.007 35.832 167.167 37.064 164.735 37.8L172.367 51H161.855ZM154.127 32.088H158.783C160.063 32.088 161.023 31.784 161.663 31.176C162.303 30.568 162.623 29.688 162.623 28.536C162.623 27.448 162.287 26.6 161.615 25.992C160.975 25.352 160.031 25.032 158.783 25.032H154.127V32.088Z" fill="white"/>
<path d="M24.096 80.48H12.096L10.272 86H0.384L12.72 52.16H23.568L35.856 86H25.92L24.096 80.48ZM21.744 73.28L18.096 62.336L14.496 73.28H21.744ZM52.3144 52.16C55.8664 52.16 58.9704 52.88 61.6264 54.32C64.3144 55.728 66.3784 57.712 67.8184 60.272C69.2584 62.832 69.9784 65.76 69.9784 69.056C69.9784 72.32 69.2424 75.232 67.7704 77.792C66.3304 80.352 64.2664 82.368 61.5784 83.84C58.9224 85.28 55.8344 86 52.3144 86H38.9224V52.16H52.3144ZM51.5944 77.696C54.3464 77.696 56.5064 76.944 58.0744 75.44C59.6424 73.936 60.4264 71.808 60.4264 69.056C60.4264 66.272 59.6424 64.128 58.0744 62.624C56.5064 61.088 54.3464 60.32 51.5944 60.32H48.3304V77.696H51.5944ZM107.147 52.16L95.4833 86H83.4353L71.7233 52.16H81.8033L89.4833 76.592L97.1153 52.16H107.147ZM119.487 52.16V86H110.079V52.16H119.487ZM137.612 86.336C133.676 86.336 130.444 85.408 127.916 83.552C125.388 81.664 124.028 78.976 123.836 75.488H133.868C133.964 76.672 134.316 77.536 134.924 78.08C135.532 78.624 136.316 78.896 137.276 78.896C138.14 78.896 138.844 78.688 139.388 78.272C139.964 77.824 140.252 77.216 140.252 76.448C140.252 75.456 139.788 74.688 138.86 74.144C137.932 73.6 136.428 72.992 134.348 72.32C132.14 71.584 130.348 70.88 128.972 70.208C127.628 69.504 126.444 68.496 125.42 67.184C124.428 65.84 123.932 64.096 123.932 61.952C123.932 59.776 124.476 57.92 125.564 56.384C126.652 54.816 128.156 53.632 130.076 52.832C131.996 52.032 134.172 51.632 136.604 51.632C140.54 51.632 143.676 52.56 146.012 54.416C148.38 56.24 149.644 58.816 149.804 62.144H139.58C139.548 61.12 139.228 60.352 138.62 59.84C138.044 59.328 137.292 59.072 136.364 59.072C135.66 59.072 135.084 59.28 134.636 59.696C134.188 60.112 133.964 60.704 133.964 61.472C133.964 62.112 134.204 62.672 134.684 63.152C135.196 63.6 135.82 64 136.556 64.352C137.292 64.672 138.38 65.088 139.82 65.6C141.964 66.336 143.724 67.072 145.1 67.808C146.508 68.512 147.708 69.52 148.7 70.832C149.724 72.112 150.236 73.744 150.236 75.728C150.236 77.744 149.724 79.552 148.7 81.152C147.708 82.752 146.252 84.016 144.332 84.944C142.444 85.872 140.204 86.336 137.612 86.336ZM170.834 86.336C167.666 86.336 164.754 85.6 162.098 84.128C159.442 82.624 157.33 80.56 155.762 77.936C154.226 75.28 153.458 72.288 153.458 68.96C153.458 65.632 154.226 62.656 155.762 60.032C157.33 57.376 159.442 55.312 162.098 53.84C164.754 52.368 167.666 51.632 170.834 51.632C174.034 51.632 176.946 52.368 179.57 53.84C182.226 55.312 184.322 57.376 185.858 60.032C187.394 62.656 188.162 65.632 188.162 68.96C188.162 72.288 187.394 75.28 185.858 77.936C184.322 80.56 182.226 82.624 179.57 84.128C176.914 85.6 174.002 86.336 170.834 86.336ZM170.834 77.6C173.234 77.6 175.122 76.816 176.498 75.248C177.906 73.68 178.61 71.584 178.61 68.96C178.61 66.272 177.906 64.16 176.498 62.624C175.122 61.056 173.234 60.272 170.834 60.272C168.402 60.272 166.498 61.056 165.122 62.624C163.746 64.16 163.058 66.272 163.058 68.96C163.058 71.616 163.746 73.728 165.122 75.296C166.498 76.832 168.402 77.6 170.834 77.6ZM209.527 86L202.807 73.52H201.799V86H192.391V52.16H207.223C209.943 52.16 212.247 52.64 214.135 53.6C216.023 54.528 217.447 55.824 218.407 57.488C219.367 59.12 219.847 60.96 219.847 63.008C219.847 65.312 219.207 67.344 217.927 69.104C216.679 70.832 214.839 72.064 212.407 72.8L220.039 86H209.527ZM201.799 67.088H206.455C207.735 67.088 208.695 66.784 209.335 66.176C209.975 65.568 210.295 64.688 210.295 63.536C210.295 62.448 209.959 61.6 209.287 60.992C208.647 60.352 207.703 60.032 206.455 60.032H201.799V67.088ZM228.686 86.384C227.022 86.384 225.678 85.936 224.654 85.04C223.662 84.112 223.166 82.944 223.166 81.536C223.166 80.128 223.662 78.96 224.654 78.032C225.678 77.104 227.022 76.64 228.686 76.64C230.318 76.64 231.63 77.104 232.622 78.032C233.646 78.96 234.158 80.128 234.158 81.536C234.158 82.912 233.646 84.064 232.622 84.992C231.63 85.92 230.318 86.384 228.686 86.384Z" fill="white"/>
</svg>
