<svg width="89" height="80" viewBox="0 0 89 80" fill="none" xmlns="http://www.w3.org/2000/svg">
<path d="M0 10C0 4.47715 4.47715 0 10 0H79C84.5228 0 89 4.47715 89 10V70C89 75.5228 84.5228 80 79 80H10C4.47715 80 0 75.5228 0 70V10Z" fill="#17252A"/>
<path d="M32.4304 50.4545V65H29.7741L23.446 55.8452H23.3395V65H20.2642V50.4545H22.9631L29.2415 59.6023H29.3693V50.4545H32.4304ZM39.886 65.2131C38.7638 65.2131 37.7979 64.9858 36.9883 64.5312C36.1834 64.072 35.5631 63.4233 35.1275 62.5852C34.6919 61.7424 34.4741 60.7457 34.4741 59.5952C34.4741 58.473 34.6919 57.4882 35.1275 56.6406C35.5631 55.7931 36.1763 55.1326 36.967 54.6591C37.7624 54.1856 38.6952 53.9489 39.7653 53.9489C40.485 53.9489 41.1549 54.0649 41.7752 54.2969C42.4002 54.5241 42.9447 54.8674 43.4087 55.3267C43.8775 55.786 44.2421 56.3636 44.5025 57.0597C44.7629 57.7509 44.8931 58.5606 44.8931 59.4886V60.3196H35.6815V58.4446H42.0451C42.0451 58.009 41.9504 57.6231 41.761 57.2869C41.5716 56.9508 41.3088 56.688 40.9727 56.4986C40.6412 56.3045 40.2553 56.2074 39.815 56.2074C39.3557 56.2074 38.9485 56.3139 38.5934 56.527C38.243 56.7353 37.9684 57.017 37.7695 57.3722C37.5707 57.7225 37.4689 58.1132 37.4641 58.544V60.3267C37.4641 60.8665 37.5636 61.3329 37.7624 61.7259C37.966 62.1188 38.2525 62.4219 38.6218 62.6349C38.9911 62.848 39.4291 62.9545 39.9357 62.9545C40.2719 62.9545 40.5797 62.9072 40.859 62.8125C41.1384 62.7178 41.3775 62.5758 41.5763 62.3864C41.7752 62.197 41.9267 61.965 42.0309 61.6903L44.8292 61.875C44.6871 62.5473 44.396 63.1345 43.9556 63.6364C43.52 64.1335 42.9566 64.5218 42.2653 64.8011C41.5787 65.0758 40.7856 65.2131 39.886 65.2131ZM49.2006 54.0909L51.2035 57.9048L53.256 54.0909H56.3597L53.1992 59.5455L56.445 65H53.3555L51.2035 61.2287L49.087 65H45.962L49.2006 59.5455L46.0756 54.0909H49.2006ZM63.9592 54.0909V56.3636H57.3896V54.0909H63.9592ZM58.881 51.4773H61.9066V61.6477C61.9066 61.9271 61.9492 62.1449 62.0344 62.3011C62.1197 62.4527 62.238 62.5592 62.3896 62.6207C62.5458 62.6823 62.7257 62.7131 62.9293 62.7131C63.0714 62.7131 63.2134 62.7012 63.3555 62.6776C63.4975 62.6491 63.6064 62.6278 63.6822 62.6136L64.158 64.8651C64.0065 64.9124 63.7934 64.9669 63.5188 65.0284C63.2442 65.0947 62.9104 65.1349 62.5174 65.1491C61.7882 65.1776 61.149 65.0805 60.5998 64.858C60.0553 64.6354 59.6315 64.2898 59.3285 63.821C59.0254 63.3523 58.8763 62.7604 58.881 62.0455V51.4773Z" fill="white"/>
<path d="M61.4142 29.4142C62.1953 28.6332 62.1953 27.3668 61.4142 26.5858L48.6863 13.8579C47.9052 13.0768 46.6389 13.0768 45.8579 13.8579C45.0768 14.6389 45.0768 15.9052 45.8579 16.6863L57.1716 28L45.8579 39.3137C45.0768 40.0948 45.0768 41.3611 45.8579 42.1421C46.6389 42.9232 47.9052 42.9232 48.6863 42.1421L61.4142 29.4142ZM27 30H60V26H27V30Z" fill="white"/>
</svg>
